<svg id="Capa_1" data-name="Capa 1" xmlns="http://www.w3.org/2000/svg" viewBox="0 0 356.27 255.21"><defs><style>.cls-1{fill:#2b3375;}.cls-2{fill:#fff;}.cls-3{fill:#f8d000;}</style></defs><title>logo_mobile</title><path class="cls-1" d="M296.28,28c7.75,2.57,9.41,5.89,6.45,13.11-.9,2.2.76,2.3,1.66,2.9a138.46,138.46,0,0,1,30.25,26.53c12.17,14.55,20,31.08,21.31,50.13,2.52,36-10.08,65.93-37.13,89.72-21.53,18.93-46.89,30.45-74.53,36.86-52,12.07-103.65,11-154.35-6.79-25.32-8.87-47.82-22.51-65.2-43.37C1.23,168.85-5.48,136.62,4.42,101.5c6-21.11,20.34-36.78,37.29-50.12C44.78,49,48,46.73,51.23,44.52c1.17-.81,1.22-1.17.33-2.42-4.12-5.81-2.48-11,4.18-13.51,1.11-.42,1.66-.57,1-1.92-2-4-.69-7.59,2.2-10.36,6.47-6.2,14-11,21.88-15.19,3.88-2.05,7.83-1.23,11.11,2,4.6,4.56,9.38,9,13.91,13.6a4.84,4.84,0,0,0,5.42,1.53A264.3,264.3,0,0,1,243,17.74a4.63,4.63,0,0,0,5.14-1.36c4.24-4.4,8.78-8.52,13.09-12.87C265-.33,269.47-1,273.93,1.6c6.95,4.05,13.82,8.34,19.83,13.74C297.54,18.74,299.16,22.9,296.28,28Z"/><path class="cls-2" d="M228.81,149A293.84,293.84,0,0,1,291,128.45c18.28-3.84,36.7-5.93,55.4-3.47,1.82.24,2.88.5,2.73,2.79a81.92,81.92,0,0,1-20.8,49.83c-.38.44-.85.82-1.4,1.34-3.59-6.3-9.14-7.06-15.34-5.66-33.15,7.54-66.64,8.43-100.34,5.08-5.6-.56-11.25-.78-16.77-1.75-10.37-1.81-14.49-8-12.88-18.42,1.45-9.42,5.24-18,9.08-26.62,9.68-21.64,18.42-43.67,28.5-65.13C226,52,234.28,38.79,245.81,27.68q9.78-9.42,19.29-19.13c2.15-2.19,4.33-2.66,6.82-1,5.66,3.84,11.3,7.71,16.87,11.67,2.71,1.94,3.26,4.23.95,7.1a42.48,42.48,0,0,1-7.93,7.58c-1.43,1.05-9.44.22-10.5-1s.12-2.07.48-3a2.4,2.4,0,0,1,3.2-1.67,38.29,38.29,0,0,1,3.74,1.82c-.91-2.27,1-2.6,2.33-3.72-5.43-.36-2.55-4.66-4.08-7.16-1.44,2-1.07,6-3.91,5.84-2-.09-3.82-2.64-5.93-4.25-.11.63-.31,1-.2,1.25,3.21,6.15,3.24,6.63-1.51,11.77-3.07,3.32-6.41,6.39-9.6,9.6-.46.46-1.41.82-1,1.7s1.24.69,2,.7c3.13,0,5.41-1.8,7.05-4.06,3.33-4.6,7.19-5.89,12.27-3.07,2.27,1.26,4.46.76,6.6-.5A25.54,25.54,0,0,1,295,34.73c1.07,0,2.42-.28,2.79,1.1a2.58,2.58,0,0,1-1.6,3A11.58,11.58,0,0,1,292.71,40a94.49,94.49,0,0,0-26.59,7.88,21.11,21.11,0,0,1-13.22,1.76c-4.39-.86-6.76.39-8.56,4.49-6,13.65-10.41,27.65-9.62,42.88.7,13.46.64,26.91-1.94,40.23C232,141.09,230.31,144.58,228.81,149Z"/><path class="cls-2" d="M98.78,45.34c-3.17-3.42-6.32-6.51-9.11-9.89-5.08-6.16-7.19-5.21-2.72-15-1.78,1.32-2.9,2.1-4,2.95-3.08,2.49-4,2.19-5.37-1.71-.26-.78-.23-1.68-1-2.28-1.67,2.05,1.3,6.57-3.7,6.82.08,1.62,3.75,1,1.41,4,5.72-2.69,7-2.45,8,.94.2.7.58,1.3-.22,1.94-1.91,1.52-9.13,1.8-11.1.27a36.47,36.47,0,0,1-7.68-7.81c-1.51-2.15-1.19-3.8.61-5.44a17.43,17.43,0,0,1,1.62-1.49C70.65,15.05,75.76,11.48,80.91,8c2.74-1.86,5.12-1.86,7.78.72,9,8.7,17.85,17.46,26.3,26.65a103.25,103.25,0,0,1,16.45,25c13.17,27,24.24,55,36.22,82.53a58.53,58.53,0,0,1,4.48,16.58c1.08,9.25-3,15.28-12.18,17-10.24,1.9-20.67,2.08-31,2.89a294.56,294.56,0,0,1-87.52-6.22c-4.55-1-9.08-.78-12.63,2.9-1.09,1.14-1.63.49-2.28-.34C15.68,162,7.91,147,7.75,129c0-2.25.59-3.1,3-3.42,17.83-2.44,35.41-.67,52.87,2.93a259,259,0,0,1,58,19.12c.83.39,1.6,1.15,2.93.85-7.22-17.25-6.13-35.34-5.58-53.37.44-14.55-4-27.94-9.68-41.05-1.53-3.53-4.35-5.38-8.26-4.5-6,1.35-11.37-.51-16.62-3a75,75,0,0,0-20.29-6c-2.41-.38-4.89-.58-7-2a2.52,2.52,0,0,1-1.26-2.82c.34-1.24,1.48-1.1,2.44-1.08a23.61,23.61,0,0,1,11.93,3.13,8.69,8.69,0,0,0,8.34.54c5.85-2.27,6-2.09,10.39,2.58C91.59,43.77,94.17,46.94,98.78,45.34Z"/><path class="cls-3" d="M176.82,171.67c4.88,8.82,12.75,11.22,21.29,11.92,21.82,1.79,43.63,4,65.58,2.59a307.53,307.53,0,0,0,47.57-6.37c2-.45,4-1.11,6.14-.75,2.34.4,3.53,2,4.37,4s-1.07,2.57-2,3.42c-17.65,16.5-38.4,27.84-61.24,35.09-61.45,19.51-122.11,17.77-181.49-8.34a140.17,140.17,0,0,1-42.61-28.85c-.78-.77-2.32-1.3-1.78-2.84s1.93-2.08,3.42-2.44a8.64,8.64,0,0,1,4,.27,305.38,305.38,0,0,0,93.36,6c8-.71,16.09-1.25,24.12-2.09S172.43,179.57,176.82,171.67Z"/><path class="cls-3" d="M239.9,24.24c-.07.23-.07.52-.23.67-14.33,13.64-22.73,31-30.72,48.67-10,22-19.06,44.48-28.74,66.64-1.25,2.87-2.13,5.91-3.48,9.7-4.45-14.88-11.55-27.82-17-41.46-6.54-16.48-14-32.55-21.54-48.59C132.14,46.93,124.4,35.13,114,25.13,132.93,14.46,215.38,14,239.9,24.24Z"/><path class="cls-3" d="M239.3,137.35c1.85-11.53,2.95-22.91,1.93-34.22-1.4-15.47,1.88-29.86,7.67-44,1-2.46,1.94-3.67,5-3.14,6.67,1.15,12.77-1.23,18.7-4,6.81-3.21,14.11-4.63,21.48-5.8a3.27,3.27,0,0,1,2.39.61c20.69,12.84,37.92,28.86,47.43,51.91a75.26,75.26,0,0,1,4.63,17.32c.23,1.56.44,2.84-2,2.58-36.52-3.78-70.85,5.31-104.59,17.86C241.18,136.78,240.39,137,239.3,137.35Z"/><path class="cls-3" d="M113.69,137.11c-8.76-3.4-17.67-6.71-26.8-9.39-22-6.46-44.24-10.54-67.25-9.28a86.87,86.87,0,0,0-9.12.88c-2.4.38-3-.33-2.67-2.66A76,76,0,0,1,18.2,87.11c10-16.94,24.37-29.5,40.92-39.73,3-1.88,6.23-.26,9.19.46a82.16,82.16,0,0,1,16.22,5.67A26.24,26.24,0,0,0,101,55.93,2.36,2.36,0,0,1,104,57.65c5.3,13.24,9.64,26.57,8.45,41.24a159.38,159.38,0,0,0,1.46,36.24C114,135.71,114.36,136.3,113.69,137.11Z"/></svg>