<svg id="Capa_1" data-name="Capa 1" xmlns="http://www.w3.org/2000/svg" viewBox="0 0 849.44 211.29"><defs><style>.cls-1{fill:#2b3375;}.cls-2{fill:#fff;}.cls-3{fill:#f8d000;}.cls-4{fill:#292a6f;}</style></defs><title>mercado livre</title><path class="cls-1" d="M258.87,23.16c6.78,2.12,8.23,4.87,5.64,10.85-.79,1.82.67,1.91,1.45,2.4a119.41,119.41,0,0,1,26.43,22C303,70.42,309.85,84.1,311,99.87c2.19,29.79-8.82,54.59-32.46,74.29-18.8,15.67-41,25.21-65.11,30.51-45.45,10-90.57,9.09-134.87-5.62-22.12-7.34-41.78-18.63-57-35.91C1.07,139.79-4.79,113.11,3.87,84c5.2-17.48,17.76-30.45,32.57-41.49,2.69-2,5.5-3.85,8.32-5.68,1-.67,1.07-1,.29-2-3.6-4.81-2.17-9.08,3.65-11.18,1-.35,1.45-.47.85-1.59-1.75-3.29-.6-6.28,1.92-8.58A84.65,84.65,0,0,1,70.59.93C74-.77,77.43-.09,80.3,2.6c4,3.78,8.19,7.42,12.15,11.26a4.38,4.38,0,0,0,4.74,1.27,243.19,243.19,0,0,1,115.13-.44,4.19,4.19,0,0,0,4.49-1.13c3.71-3.64,7.67-7.06,11.44-10.65,3.33-3.19,7.2-3.74,11.1-1.59A104.65,104.65,0,0,1,256.68,12.7C260,15.51,261.39,19,258.87,23.16Z"/><path class="cls-2" d="M199.92,123.34a266.88,266.88,0,0,1,54.35-17c16-3.18,32.07-4.91,48.41-2.87,1.58.2,2.51.41,2.38,2.31C304,121.5,297.83,135.22,286.89,147c-.34.37-.75.68-1.23,1.11-3.13-5.21-8-5.85-13.4-4.68-29,6.24-58.22,7-87.67,4.2-4.89-.46-9.83-.64-14.66-1.44-9.05-1.5-12.65-6.62-11.25-15.25,1.27-7.8,4.58-14.93,7.94-22C175.07,91,182.71,72.77,191.52,55c5.92-12,13.18-22.88,23.25-32.08q8.55-7.82,16.86-15.84c1.88-1.81,3.78-2.2,6-.8,4.94,3.18,9.87,6.38,14.74,9.67,2.37,1.6,2.85,3.49.83,5.87a36.63,36.63,0,0,1-6.93,6.28c-1.25.86-8.25.18-9.17-.84s.1-1.72.41-2.49a2.12,2.12,0,0,1,2.8-1.38,34.66,34.66,0,0,1,3.27,1.5c-.8-1.87.88-2.15,2-3.07-4.75-.31-2.23-3.87-3.56-5.93-1.26,1.66-.94,4.95-3.43,4.84-1.72-.08-3.33-2.2-5.18-3.53-.09.53-.27.85-.17,1,2.8,5.09,2.83,5.49-1.32,9.74-2.68,2.75-5.6,5.29-8.39,8-.4.38-1.23.68-.86,1.41s1.08.57,1.71.58a7.6,7.6,0,0,0,6.17-3.37c2.91-3.8,6.28-4.87,10.72-2.54,2,1.05,3.89.64,5.77-.41a23.17,23.17,0,0,1,10.68-2.85c.94,0,2.11-.23,2.44.92a2.12,2.12,0,0,1-1.4,2.48,10.68,10.68,0,0,1-3,1,86.38,86.38,0,0,0-23.23,6.53A19.38,19.38,0,0,1,221,41.1c-3.84-.71-5.9.32-7.48,3.72-5.23,11.3-9.09,22.89-8.4,35.5.6,11.13.56,22.27-1.69,33.3C202.75,116.8,201.23,119.7,199.92,123.34Z"/><path class="cls-2" d="M86.31,37.54c-2.77-2.84-5.52-5.39-8-8.19C73.91,24.25,72.06,25,76,16.92c-1.55,1.1-2.53,1.74-3.45,2.44C69.83,21.42,69,21.18,67.83,18c-.23-.65-.21-1.4-.87-1.89-1.46,1.7,1.13,5.44-3.24,5.65C63.8,23.05,67,22.56,65,25c5-2.24,6.13-2,7,.77.17.58.51,1.08-.19,1.6-1.67,1.26-8,1.5-9.7.23a30.94,30.94,0,0,1-6.71-6.46c-1.32-1.79-1-3.15.53-4.51a13.75,13.75,0,0,1,1.42-1.23c4.46-2.95,8.93-5.9,13.43-8.8,2.39-1.54,4.47-1.54,6.79.59,7.83,7.2,15.6,14.45,23,22.07A85.34,85.34,0,0,1,114.85,50c11.5,22.38,21.18,45.52,31.64,68.33a46.43,46.43,0,0,1,3.92,13.73c.94,7.66-2.64,12.65-10.64,14.05-9,1.57-18.07,1.72-27.12,2.39a271.39,271.39,0,0,1-76.46-5.15c-4-.84-7.94-.65-11,2.4-1,.94-1.43.41-2-.28C13.7,134.1,6.91,121.73,6.77,106.8c0-1.85.52-2.56,2.6-2.83,15.57-2,30.93-.55,46.19,2.43a235.37,235.37,0,0,1,50.68,15.83,3.63,3.63,0,0,0,2.56.71c-6.31-14.28-5.36-29.26-4.88-44.19.39-12-3.52-23.13-8.46-34A6,6,0,0,0,88.25,41c-5.25,1.12-9.94-.43-14.52-2.47A68.28,68.28,0,0,0,56,33.63c-2.09-.31-4.26-.48-6.1-1.65a2.07,2.07,0,0,1-1.1-2.34c.3-1,1.29-.91,2.13-.89a21.42,21.42,0,0,1,10.43,2.59,7.94,7.94,0,0,0,7.28.44c5.11-1.88,5.23-1.73,9.08,2.14C80,36.24,82.28,38.86,86.31,37.54Z"/><path class="cls-3" d="M154.49,142.12c4.27,7.31,11.15,9.3,18.61,9.88,19.06,1.48,38.12,3.33,57.3,2.14A281.81,281.81,0,0,0,272,148.86a14.46,14.46,0,0,1,5.37-.62,4.87,4.87,0,0,1,3.81,3.31c.74,1.67-.93,2.12-1.73,2.83-15.42,13.66-33.55,23-53.51,29.05-53.69,16.15-106.7,14.71-158.58-6.9a123.36,123.36,0,0,1-37.23-23.89c-.68-.64-2-1.07-1.55-2.35s1.68-1.73,3-2a7.85,7.85,0,0,1,3.48.22,281.22,281.22,0,0,0,81.57,5c7-.59,14.07-1,21.08-1.73S150.66,148.67,154.49,142.12Z"/><path class="cls-3" d="M209.61,20.07c-.06.19-.06.43-.19.55-12.53,11.3-19.87,25.67-26.85,40.3-8.72,18.25-16.65,36.82-25.11,55.17-1.09,2.38-1.86,4.89-3,8-3.89-12.32-10.1-23-14.83-34.33-5.71-13.64-12.23-26.95-18.82-40.22A95.48,95.48,0,0,0,99.62,20.81C116.15,12,188.18,11.55,209.61,20.07Z"/><path class="cls-3" d="M209.09,113.72c1.61-9.55,2.58-19,1.68-28.34-1.22-12.81,1.65-24.72,6.7-36.39.88-2,1.7-3,4.38-2.6,5.83,1,11.16-1,16.34-3.33,6-2.66,12.33-3.83,18.77-4.81a3,3,0,0,1,2.09.51c18.08,10.64,33.13,23.89,41.44,43a58.59,58.59,0,0,1,4,14.34c.21,1.29.4,2.35-1.75,2.14-31.91-3.14-61.9,4.39-91.38,14.78C210.73,113.24,210,113.42,209.09,113.72Z"/><path class="cls-3" d="M99.34,113.51c-7.66-2.81-15.45-5.55-23.42-7.77C56.74,100.39,37.27,97,17.16,98.06c-2.66.14-5.34.32-8,.72-2.09.32-2.59-.27-2.33-2.2a60.81,60.81,0,0,1,9-24.46c8.76-14,21.3-24.42,35.75-32.9,2.66-1.55,5.45-.21,8,.39A74,74,0,0,1,73.86,44.3a24.12,24.12,0,0,0,14.36,2,2.06,2.06,0,0,1,2.67,1.42c4.63,11,8.42,22,7.38,34.14a125.25,125.25,0,0,0,1.28,30C99.62,112.36,99.92,112.84,99.34,113.51Z"/><path class="cls-4" d="M494.19,47.09h0a13.88,13.88,0,0,0-14,13.7v.68h28.32c0-6.7-5.76-14.38-14.35-14.38M491,34.26h6.39a28.22,28.22,0,0,1,23.46,12.35c5.84,8.62,4.09,16.08,4.95,25.9H480.22v.37a13.89,13.89,0,0,0,14,13.71h0a14,14,0,0,0,10.47-4.66h19.41a28.28,28.28,0,0,1-26.69,18.71H491c-15.52,0-28.22-12.46-28.22-27.69V62C462.77,46.72,475.47,34.26,491,34.26ZM679.47,143h0a13.88,13.88,0,0,0-14,13.7v.68h28.33C693.83,150.68,688.06,143,679.47,143Zm-3.19-12.83h6.39a28.22,28.22,0,0,1,23.45,12.35c5.84,8.62,4.09,16.08,5,25.9H665.5v.37a13.88,13.88,0,0,0,14,13.71h0a14.06,14.06,0,0,0,10.47-4.66h19.41a28.28,28.28,0,0,1-26.68,18.71h-6.39c-15.53,0-28.23-12.46-28.23-27.68v-11C648.05,142.63,660.75,130.17,676.28,130.17Zm-33.21,16.76h-8a14.2,14.2,0,0,0-10,4.07,13.7,13.7,0,0,0-4.15,9.78V195.3H605.33V160.78a28.88,28.88,0,0,1,8.74-20.65,30,30,0,0,1,21-8.58h8Zm-83,48.37-21.61-63.85h17.12l13.05,42.86L580,137c1.07-3.9,5-5.5,8.17-5.5h10.63L577.17,195.3ZM509.6,125.5V108.81h17.13V125.5Zm0,69.8V131.37h17.13V195.3Zm-33.51,0V118.56c0-5.25,9.11-9.75,17.12-9.75V195.3ZM687.8,69.19c-6,0-23.12,3.09-23.12,12.32,0,4.67,4.16,8.48,9.25,8.48h0c7.63,0,13.87-5.73,13.87-12.73ZM669.47,35h16.91a18.94,18.94,0,0,1,19.07,18.71V75.36h0v1c0,6.23-.84,9.26-4.91,14.7A25.6,25.6,0,0,1,680,101.38H668a19.76,19.76,0,0,1-19.88-19.51V80.34c0-15.6,15.18-19.5,28.7-19.5,3.48,0,8.58-1.64,11-4.08V49.59c-1.88-2.27-5.58-3.29-10.6-3.29-8.3,0-10.71,5.39-10.71,9.68h-16.1V53.71A19,19,0,0,1,669.47,35Zm148.63,14a13.88,13.88,0,0,0-13.89,13.71V73.61a13.89,13.89,0,0,0,27.78,0V62.76A13.88,13.88,0,0,0,818.1,49.05ZM815,35h6.4a28.19,28.19,0,0,1,27.78,22.82H849a26.9,26.9,0,0,1,.44,4.87v11a28.45,28.45,0,0,1-.16,2.93h.16a28.14,28.14,0,0,1-28.06,24.77h-6.55a28.14,28.14,0,0,1-28.07-24.77h.16a28.45,28.45,0,0,1-.16-2.93v-11a27.83,27.83,0,0,1,.44-4.87h-.15A28.18,28.18,0,0,1,814.83,35ZM759.29,59l-.61-1.19a14,14,0,0,0-13-8.77h0a13.88,13.88,0,0,0-14,13.71V73.61a13.88,13.88,0,0,0,14,13.71h0a14,14,0,0,0,13.63-10.71ZM742.46,35c6.52,0,11.93,3.49,16.83,7.62v-18a12.46,12.46,0,0,1,12.54-12.3h5v64.3h.1a28.14,28.14,0,0,1-28.07,24.77h-6.39c-15.52,0-28.22-12.46-28.22-27.7v-11C714.24,47.45,726.94,35,742.46,35ZM607.15,35h6.39a28.18,28.18,0,0,1,27.78,22.82h-18c-2-5.12-7.12-10-13-10h0a13.88,13.88,0,0,0-14,13.7V73.61a13.89,13.89,0,0,0,14,13.71h0A14,14,0,0,0,624,76.61H641.6a28.14,28.14,0,0,1-28.06,24.77h-6.39c-15.52,0-28.22-12.46-28.22-27.7v-11C578.93,47.45,591.63,35,607.15,35Zm-33,15H566.2a14.21,14.21,0,0,0-10,4.07,13.66,13.66,0,0,0-4.15,9.77V98.35H536.41V63.82a28.91,28.91,0,0,1,8.74-20.65,30,30,0,0,1,21.05-8.58h7.95ZM438.23,98.35V60.74A10.61,10.61,0,0,0,435,53.15,11,11,0,0,0,427.26,50h-2a11,11,0,0,0-7.75,3.17,10.62,10.62,0,0,0-3.23,7.59V98.35H398.61V60.74a10.58,10.58,0,0,0-3.23-7.59A11,11,0,0,0,387.64,50h-2a11,11,0,0,0-7.74,3.17,10.62,10.62,0,0,0-3.23,7.59V98.35H359V60.74a25.83,25.83,0,0,1,7.82-18.47,26.84,26.84,0,0,1,18.83-7.68h2a26.84,26.84,0,0,1,18.81,7.66,26.88,26.88,0,0,1,18.82-7.66h2a26.82,26.82,0,0,1,18.83,7.68,25.79,25.79,0,0,1,7.82,18.47V98.35Z"/></svg>