<svg id="Capa_1" data-name="Capa 1" xmlns="http://www.w3.org/2000/svg" viewBox="0 0 849.44 211.29"><defs><style>.cls-1{fill:#2b3375;}.cls-2{fill:#fff;}.cls-3{fill:#3cb49d;}</style></defs><title>mercado-tokens</title><path class="cls-1" d="M258.87,23.16c6.78,2.12,8.23,4.87,5.64,10.85-.79,1.82.67,1.91,1.45,2.4a119.41,119.41,0,0,1,26.43,22C303,70.42,309.85,84.1,311,99.87c2.19,29.79-8.82,54.59-32.46,74.29-18.8,15.67-41,25.21-65.11,30.51-45.45,10-90.57,9.09-134.87-5.62-22.12-7.34-41.78-18.63-57-35.91C1.07,139.79-4.79,113.11,3.87,84c5.2-17.48,17.76-30.45,32.57-41.49,2.69-2,5.5-3.85,8.32-5.68,1-.67,1.07-1,.29-2-3.6-4.81-2.17-9.08,3.65-11.18,1-.35,1.45-.47.85-1.59-1.75-3.29-.6-6.28,1.92-8.58A84.65,84.65,0,0,1,70.59.93C74-.77,77.43-.09,80.3,2.6c4,3.78,8.19,7.42,12.15,11.26a4.38,4.38,0,0,0,4.74,1.27,243.19,243.19,0,0,1,115.13-.44,4.19,4.19,0,0,0,4.49-1.13c3.71-3.64,7.67-7.06,11.44-10.65,3.33-3.19,7.2-3.74,11.1-1.59A104.65,104.65,0,0,1,256.68,12.7C260,15.51,261.39,19,258.87,23.16Z"/><path class="cls-2" d="M199.92,123.34a266.88,266.88,0,0,1,54.35-17c16-3.18,32.07-4.91,48.41-2.87,1.58.2,2.51.41,2.38,2.31C304,121.5,297.83,135.22,286.89,147c-.34.37-.75.68-1.23,1.11-3.13-5.21-8-5.85-13.4-4.68-29,6.24-58.22,7-87.67,4.2-4.89-.46-9.83-.64-14.66-1.44-9.05-1.5-12.65-6.62-11.25-15.25,1.27-7.8,4.58-14.93,7.94-22C175.07,91,182.71,72.77,191.52,55c5.92-12,13.18-22.88,23.25-32.08q8.55-7.82,16.86-15.84c1.88-1.81,3.78-2.2,6-.8,4.94,3.18,9.87,6.38,14.74,9.67,2.37,1.6,2.85,3.49.83,5.87a36.63,36.63,0,0,1-6.93,6.28c-1.25.86-8.25.18-9.17-.84s.1-1.72.41-2.49a2.12,2.12,0,0,1,2.8-1.38,34.66,34.66,0,0,1,3.27,1.5c-.8-1.87.88-2.15,2-3.07-4.75-.31-2.23-3.87-3.56-5.93-1.26,1.66-.94,4.95-3.43,4.84-1.72-.08-3.33-2.2-5.18-3.53-.09.53-.27.85-.17,1,2.8,5.09,2.83,5.49-1.32,9.74-2.68,2.75-5.6,5.29-8.39,8-.4.38-1.23.68-.86,1.41s1.08.57,1.71.58a7.6,7.6,0,0,0,6.17-3.37c2.91-3.8,6.28-4.87,10.72-2.54,2,1.05,3.89.64,5.77-.41a23.17,23.17,0,0,1,10.68-2.85c.94,0,2.11-.23,2.44.92a2.12,2.12,0,0,1-1.4,2.48,10.68,10.68,0,0,1-3,1,86.38,86.38,0,0,0-23.23,6.53A19.38,19.38,0,0,1,221,41.1c-3.84-.71-5.9.32-7.48,3.72-5.23,11.3-9.09,22.89-8.4,35.5.6,11.13.56,22.27-1.69,33.3C202.75,116.8,201.23,119.7,199.92,123.34Z"/><path class="cls-2" d="M86.31,37.54c-2.77-2.84-5.52-5.39-8-8.19C73.91,24.25,72.06,25,76,16.92c-1.55,1.1-2.53,1.74-3.45,2.44C69.83,21.42,69,21.18,67.83,18c-.23-.65-.21-1.4-.87-1.89-1.46,1.7,1.13,5.44-3.24,5.65C63.8,23.05,67,22.56,65,25c5-2.24,6.13-2,7,.77.17.58.51,1.08-.19,1.6-1.67,1.26-8,1.5-9.7.23a30.94,30.94,0,0,1-6.71-6.46c-1.32-1.79-1-3.15.53-4.51a13.75,13.75,0,0,1,1.42-1.23c4.46-2.95,8.93-5.9,13.43-8.8,2.39-1.54,4.47-1.54,6.79.59,7.83,7.2,15.6,14.45,23,22.07A85.34,85.34,0,0,1,114.85,50c11.5,22.38,21.18,45.52,31.64,68.33a46.43,46.43,0,0,1,3.92,13.73c.94,7.66-2.64,12.65-10.64,14.05-9,1.57-18.07,1.72-27.12,2.39a271.39,271.39,0,0,1-76.46-5.15c-4-.84-7.94-.65-11,2.4-1,.94-1.43.41-2-.28C13.7,134.1,6.91,121.73,6.77,106.8c0-1.85.52-2.56,2.6-2.83,15.57-2,30.93-.55,46.19,2.43a235.37,235.37,0,0,1,50.68,15.83,3.63,3.63,0,0,0,2.56.71c-6.31-14.28-5.36-29.26-4.88-44.19.39-12-3.52-23.13-8.46-34A6,6,0,0,0,88.25,41c-5.25,1.12-9.94-.43-14.52-2.47A68.28,68.28,0,0,0,56,33.63c-2.09-.31-4.26-.48-6.1-1.65a2.07,2.07,0,0,1-1.1-2.34c.3-1,1.29-.91,2.13-.89a21.42,21.42,0,0,1,10.43,2.59,7.94,7.94,0,0,0,7.28.44c5.11-1.88,5.23-1.73,9.08,2.14C80,36.24,82.28,38.86,86.31,37.54Z"/><path class="cls-3" d="M154.49,142.12c4.27,7.31,11.15,9.3,18.61,9.88,19.06,1.48,38.12,3.33,57.3,2.14A281.81,281.81,0,0,0,272,148.86a14.46,14.46,0,0,1,5.37-.62,4.87,4.87,0,0,1,3.81,3.31c.74,1.67-.93,2.12-1.73,2.83-15.42,13.66-33.55,23-53.51,29.05-53.69,16.15-106.7,14.71-158.58-6.9a123.36,123.36,0,0,1-37.23-23.89c-.68-.64-2-1.07-1.55-2.35s1.68-1.73,3-2a7.85,7.85,0,0,1,3.48.22,281.22,281.22,0,0,0,81.57,5c7-.59,14.07-1,21.08-1.73S150.66,148.67,154.49,142.12Z"/><path class="cls-3" d="M209.61,20.07c-.06.19-.06.43-.19.55-12.53,11.3-19.87,25.67-26.85,40.3-8.72,18.25-16.65,36.82-25.11,55.17-1.09,2.38-1.86,4.89-3,8-3.89-12.32-10.1-23-14.83-34.33-5.71-13.64-12.23-26.95-18.82-40.22A95.48,95.48,0,0,0,99.62,20.81C116.15,12,188.18,11.55,209.61,20.07Z"/><path class="cls-3" d="M209.09,113.72c1.61-9.55,2.58-19,1.68-28.34-1.22-12.81,1.65-24.72,6.7-36.39.88-2,1.7-3,4.38-2.6,5.83,1,11.16-1,16.34-3.33,6-2.66,12.33-3.83,18.77-4.81a3,3,0,0,1,2.09.51c18.08,10.64,33.13,23.89,41.44,43a58.59,58.59,0,0,1,4,14.34c.21,1.29.4,2.35-1.75,2.14-31.91-3.14-61.9,4.39-91.38,14.78C210.73,113.24,210,113.42,209.09,113.72Z"/><path class="cls-3" d="M99.34,113.51c-7.66-2.81-15.45-5.55-23.42-7.77C56.74,100.39,37.27,97,17.16,98.06c-2.66.14-5.34.32-8,.72-2.09.32-2.59-.27-2.33-2.2a60.81,60.81,0,0,1,9-24.46c8.76-14,21.3-24.42,35.75-32.9,2.66-1.55,5.45-.21,8,.39A74,74,0,0,1,73.86,44.3a24.12,24.12,0,0,0,14.36,2,2.06,2.06,0,0,1,2.67,1.42c4.63,11,8.42,22,7.38,34.14a125.25,125.25,0,0,0,1.28,30C99.62,112.36,99.92,112.84,99.34,113.51Z"/><path class="cls-1" d="M454.78,77.89c0,6.38-.06,12.76,0,19.14,0,1.78-.35,2.52-2.44,2.43-3.73-.18-7.48-.17-11.22,0-2.09.09-2.45-.67-2.44-2.45.08-12,.11-23.91,0-35.86-.07-8.21-6-12.71-14.45-11.09-5.62,1.08-9.26,5.5-9.28,11.54-.06,11.64-.11,23.29,0,34.94,0,2.49-.8,3.06-3.21,2.92-3.41-.18-6.85-.16-10.26,0-2.11.1-2.7-.52-2.68-2.52.1-11.25.05-22.49,0-33.73,0-1,0-2,0-3-.38-6.17-4-9.82-10.33-10.35S377,52.68,375.69,58.4a20.61,20.61,0,0,0-.46,4.51c0,11.25-.09,22.49,0,33.73,0,2.3-.61,3-3,2.82-3.62-.2-7.26-.08-10.9,0-1.32,0-2.23-.07-2.19-1.73.32-13.66-.94-27.38.63-41C361,46.58,367,39.14,377.41,35.87s20.31-2.08,28.43,5.7c1.31,1.26,1.82.92,2.93-.09,8.77-8,19.12-9.08,30-5.09,10.51,3.86,15.12,12.15,15.85,22.36.46,6.35.09,12.76.09,19.14Z"/><path class="cls-1" d="M632.16,58.55c-.74,0-1.5,0-2.24,0-4,.31-6.84.11-8.73-4.65-2.81-7.09-15.24-7.5-20.62-1.29a12.83,12.83,0,0,0-2.72,4.79,34.6,34.6,0,0,0,0,20.95C600.39,86,609.08,89.42,616.78,86a9.19,9.19,0,0,0,5.42-7.1c.46-2.62,1.8-3.1,4.29-3a95.61,95.61,0,0,0,11.85,0c3.38-.26,3.37,1.11,2.76,3.52-2.92,11.42-12.81,19.76-25.21,21.12a51,51,0,0,1-13.74-.21c-14.62-2.37-23.55-12.19-24.81-27.24a46.7,46.7,0,0,1,1.38-16.88c3.79-13.28,14.22-20.95,29.63-21.65a46.06,46.06,0,0,1,18.53,2.73C636.34,40.81,640.3,48,641.62,57c.18,1.24-.15,1.62-1.44,1.59C637.51,58.5,634.84,58.55,632.16,58.55Z"/><path class="cls-1" d="M535.83,78.82c.17-5.54-.58-12.15.52-18.68,2.42-14.36,13-23.64,28.58-25.21,2.44-.25,4.9-.29,7.35-.44,1.53-.09,2.35.3,2.3,2-.12,4.35-.1,8.7,0,13.06,0,1.58-.66,1.81-2.11,1.74a30.36,30.36,0,0,0-8.61.43c-5.43,1.28-8.69,4.43-9.8,9.64a36.16,36.16,0,0,0-.64,7.55c0,9.21-.07,18.43.05,27.64,0,2.15-.37,3.06-2.92,2.92a101.84,101.84,0,0,0-11.85,0c-2.58.15-3-.79-2.92-2.93C535.92,91,535.83,85.42,535.83,78.82Z"/><path class="cls-1" d="M775,14.63c-8.19-1.78-16.25,4-16.45,11.95-.13,5.44,0,10.88,0,17.16-4-5.11-8.46-8.05-14.26-8.9-13.27-2-24.75,4.38-29.67,16.6A44.76,44.76,0,0,0,712.3,78c2.07,9.68,7.14,17.28,17.64,20.59a47.47,47.47,0,0,0,21.53,1.64c16-2.39,24.66-12.28,24.67-27.68q0-15,0-30.07c0-8.5,0-17,0-25.51C776.15,16.12,776.71,15,775,14.63Zm-18.86,66c-3,5.1-7.71,7-13.68,6.59-5.49-.4-9.19-3.23-11-8-3-7.69-3.11-15.45.42-23.07,2.14-4.59,5.93-7,11.24-7.26,5.5-.23,9.77,1.82,12.63,6.3,2.64,4.12,3.24,8.72,3.2,13.88A21.41,21.41,0,0,1,756.14,80.63Z"/><path class="cls-1" d="M482,72.06c7.16.12,14.32,0,21.48,0h17.31c7.19,0,7.19,0,6.92-6.85-.73-18.41-11.58-29.33-30.53-30.72-17.6-1.29-31.25,8.39-34.55,24.63a47.19,47.19,0,0,0,.06,18.42c1.82,9.5,7.47,16.14,16.67,20.12a40.63,40.63,0,0,0,30.84.81,27.49,27.49,0,0,0,15.45-13.85c.86-1.69.76-2.47-1.62-2.39-4.69.16-9.4,0-14.1,0-.95,0-1.91-.15-2.63.72-3.46,4.22-8.37,4.38-13.38,4.21C486.13,87,480.56,82,479.57,74.62,479.29,72.54,479.84,72,482,72.06Zm-2-12.22c.74-6.26,6.31-11.33,13.13-11.68,8.57-.45,14.61,3.49,16.13,10.36.44,2,.24,2.93-2.31,2.81-4.16-.2-8.33-.06-12.5-.06s-8.34,0-12.51,0C481.07,61.24,479.81,61.75,480,59.84Z"/><path class="cls-1" d="M845.86,51.71c-4.36-9.59-11.94-15.59-23-17.19A54.83,54.83,0,0,0,812,34.13c-14.1.78-23.49,7.46-28.29,20.09a40.34,40.34,0,0,0-2.12,8.85c-3,21.71,11.5,37.81,35.92,37.76,12,.16,22.73-5,28.44-17.58A36.69,36.69,0,0,0,845.86,51.71ZM829,78.49c-2.52,5.61-7,8.49-13.42,8.6s-11.3-2.36-13.8-8a27.73,27.73,0,0,1,0-23.28c2.46-5.53,7.33-8,13.53-7.93S826.15,50.51,828.8,56c1.77,3.67,2.14,7.58,2.18,11.54A26.91,26.91,0,0,1,829,78.49Z"/><path class="cls-1" d="M706.1,65.27c0-4,.07-8.1,0-12.15-.17-8.46-3.83-13.37-12.23-16.26a48.85,48.85,0,0,0-26.5-1.48c-10.66,2.27-16.35,8.36-17.9,18.51-.32,2.1.33,2.39,2.24,2.34,3.84-.1,7.69-.12,11.54,0,2,.07,3-.29,3.52-2.38a7.65,7.65,0,0,1,6.59-5.9,23.22,23.22,0,0,1,11.38.59,5.46,5.46,0,0,1,4,5.3c.15,2.6-1.37,4.18-3.72,5.11a28.08,28.08,0,0,1-7.17,1.5c-6.46.75-13,1.25-19.07,3.71-8.41,3.42-12.49,10.64-11.57,20.35.76,8.07,6.22,13.93,15.14,15.43a57.75,57.75,0,0,0,27.84-1.69c10.24-3.35,15.55-10.27,15.87-20.53C706.21,73.58,706.1,69.42,706.1,65.27Zm-17.69,12c-1.28,8-10.14,13.36-18.28,11.1A6.93,6.93,0,0,1,664.61,82c-.33-3.49.76-6.39,4.17-8.19,2.55-1.36,5.41-1.8,8.23-2.31,3.85-.68,7.76-1.14,11.67-3.27A59.19,59.19,0,0,1,688.41,77.22Z"/><path class="cls-3" d="M734,181.8c.27-9.56.76-19-.35-28.65A24.41,24.41,0,0,0,718.2,132.8a25.12,25.12,0,0,0-12.13-2.64h0a25.17,25.17,0,0,0-12,2.58,23.43,23.43,0,0,0-15.2,20c-.16,1.35-.28,2.7-.38,4.05l-.38.83c0,2,0,4,0,6-.13,4.75-.06,9.51,0,14.27s0,9.75-.09,14.63a5.07,5.07,0,0,0,.2,1.66c.13,1,.73,1.18,1.58,1.22a7.19,7.19,0,0,0,1.43,0l1.82-.07c2.75,0,5.5-.08,8.24.08,2.4.13,3-.53,3-2.82-.14-11.24-.08-22.49,0-33.73a20.16,20.16,0,0,1,.45-4.52c1.22-5.24,5.68-8.54,11.33-8.63,5.65.09,10.11,3.39,11.33,8.63a20.77,20.77,0,0,1,.46,4.52c0,11.24.09,22.49,0,33.73,0,2.29.61,3,3,2.82,2.74-.16,5.49-.12,8.24-.08l1.81.07a7.19,7.19,0,0,0,1.43,0c.86,0,1.46-.26,1.58-1.22a4.79,4.79,0,0,0,.21-1.66C734,189,734,185.37,734,181.8Z"/><path class="cls-3" d="M449.78,152.91c0,13.16-.08,26.31.07,39.47,0,2.5-.79,3.09-3.24,3-3.62-.19-7.26-.11-10.89,0-1.65,0-2.49-.21-2.49-2.1.07-23.78,0-47.57.11-71.35,0-6.57,8.54-12.49,15.28-11.1,1.88.38,1.12,1.73,1.13,2.66C449.8,126.6,449.78,139.75,449.78,152.91Z"/><path class="cls-3" d="M458.74,131c13.89,0-6.7.07,7.18-.07,2.64,0,3.26.75,3.13,3.07-.19,3.43-.11,6.88,0,10.32,0,1.57-.21,2.36-2.21,2.36-25.1-.07-15.73,0-40.83-.1-6.93,0-13.18-8.09-11.71-14.48.4-1.78,1.82-1.06,2.81-1.07C431,130.93,444.86,131,458.74,131Z"/><path class="cls-3" d="M561.22,152.91c0,13.16-.08,26.31.07,39.47,0,2.5-.79,3.09-3.24,3-3.62-.19-7.26-.11-10.89,0-1.65,0-2.49-.21-2.49-2.1.07-23.78,0-47.57.11-71.35,0-6.57,8.53-12.49,15.27-11.1,1.89.38,1.13,1.73,1.13,2.66C561.23,126.6,561.22,139.75,561.22,152.91Z"/><path class="cls-3" d="M591.3,142.45c9.82-9.3-4.8,4.44,5.12-4.76,1.89-1.75,1.75-2.71-.07-4.27-2.7-2.29-5.22-4.79-7.72-7.28-1.14-1.13-1.91-1.52-3.32-.18-17.7,16.86-7.33,6.9-25,23.81-4.88,4.67-3.29,14.55,2.51,18.09,1.62,1,2.09-.48,2.79-1.13C575.49,157.46,581.48,151.76,591.3,142.45Z"/><path class="cls-3" d="M577.15,159.7c-9.82-9.3-1.23-1-10.94-10.45-1.85-1.79-2.86-1.66-4.5.07-2.43,2.56-5.06,4.94-7.69,7.31-1.19,1.08-1.61,1.82-.19,3.15,17.8,16.77,17,16.16,34.85,32.88,4.93,4.62,15.36,3.11,19.09-2.38,1-1.54-.5-2-1.19-2.64Q591.91,173.63,577.15,159.7Z"/><path class="cls-3" d="M533.77,147.86c-4.37-9.59-11.95-15.59-23-17.19a54.76,54.76,0,0,0-10.86-.39c-14.11.78-23.49,7.46-28.29,20.08a39.45,39.45,0,0,0-2.12,8.86c-3,21.71,11.5,37.81,35.91,37.76,12,.16,22.73-5,28.44-17.58A36.72,36.72,0,0,0,533.77,147.86Zm-16.86,26.77c-2.52,5.62-7,8.49-13.41,8.6s-11.3-2.35-13.81-8a27.73,27.73,0,0,1,0-23.28c2.46-5.54,7.34-8,13.54-7.93s10.82,2.63,13.46,8.09c1.78,3.67,2.15,7.57,2.18,11.54A26.84,26.84,0,0,1,516.91,174.63Z"/><path class="cls-3" d="M626.4,168.08c13.88.19,27.77,0,41.66.13,2.18,0,3.09-.44,2.85-2.64s-.06-4.25-.2-6.37c-.93-14.08-9.71-24.38-23.32-27.38a45.77,45.77,0,0,0-12.74-.81c-14.09.89-24.95,9.75-28,22.79a47.94,47.94,0,0,0-.55,18.41c1.45,9.2,6.23,16.27,15.1,20.55a39.94,39.94,0,0,0,33.41,1.08c7.16-2.87,12.09-8.07,15.09-15.52-6,0-11.43.05-16.87,0a3.93,3.93,0,0,0-2.93,1.45c-5,4.55-11.12,4.32-17.13,2.77-5.6-1.44-8.34-5.57-9.5-10.82C622.72,169.07,623.11,168,626.4,168.08Zm-2.8-12.19a13.84,13.84,0,0,1,13.58-11.55c8.07-.29,13.82,3.65,15.45,10.42.5,2.1.08,2.9-2.38,2.8-4-.18-8.1-.05-12.16-.05h-12.8C624.13,157.51,623.31,157.56,623.6,155.89Z"/><path class="cls-3" d="M767.83,129.71c-15.39-.24-25.85,7.31-26,18.77,0,14.12,12.52,17.35,22.59,19.94,6.88,1.77,12.82,3.29,12.75,8,0,3.64-3.09,5.77-8.13,5.7-6.5-.1-9.34-2.49-10.52-6.52a1.46,1.46,0,0,0-1.39-1l-12.75-.2a1.54,1.54,0,0,0-1.53,1.82c2.16,11.92,10.22,19.05,25.4,19.28,15.46.24,26-7.45,26.14-19.12.21-13.84-12.26-17-22.28-19.44-7-1.74-13-3.25-13-8.06,0-2.79,2.35-6,8.72-5.92,7.62.11,9.18,2.69,10.38,6.67a1.58,1.58,0,0,0,1.49,1.13l11.88.18a1.6,1.6,0,0,0,1.61-1.89C791,137.72,785.81,130,767.83,129.71Z"/></svg>