<svg id="Capa_1" data-name="Capa 1" xmlns="http://www.w3.org/2000/svg" viewBox="0 0 209.24 194.16"><defs><style>.cls-1{fill:#283480;}.cls-2{fill:#009fe3;}.cls-3{fill:#fff;}</style></defs><title>mercado-pago</title><path class="cls-1" d="M171.15,43.39c0-23.9-29.7-43.39-66.34-43.39S38.48,19.49,38.48,43.39c0,.62,0,2.32,0,2.54,0,25.36,26,45.9,66.33,45.9,40.63,0,66.35-20.54,66.35-45.9Z"/><path class="cls-2" d="M168.61,43.37c0,22.53-28.56,40.8-63.79,40.8S41,65.9,41,43.37,69.6,2.56,104.82,2.56,168.61,20.83,168.61,43.37Z"/><path class="cls-3" d="M83.64,30.49c0,.07-.66.73-.25,1.26,1,1.28,4.11,2,7.26,1.31,1.87-.42,4.27-2.33,6.59-4.17,2.52-2,5-4,7.53-4.8a8.57,8.57,0,0,1,5.49-.14,16.65,16.65,0,0,1,5,2.92c4.36,3.28,21.91,18.59,24.94,21.24a152.09,152.09,0,0,1,28-9c-1.28-7.87-6.06-15.06-13.32-21-10.11,4.25-22.46,6.46-34.55.56-.06,0-6.6-3.12-13-3C97.76,16,93.6,20.1,89.21,24.5Z"/><path class="cls-3" d="M139.5,49.78c-.2-.18-20.63-18.06-25.26-21.54-2.68-2-4.17-2.52-5.73-2.72a8.11,8.11,0,0,0-2.73.26c-2.15.59-5,2.47-7.47,4.45s-5,4-7.29,4.51a11.81,11.81,0,0,1-8-1.21,3.48,3.48,0,0,1-1.33-1.46,2.49,2.49,0,0,1,.68-2.67L88,23.3l2-1.95a36.44,36.44,0,0,0-5.14,1.16,22.56,22.56,0,0,1-6,1.12,56.72,56.72,0,0,1-6.12-1,90.49,90.49,0,0,1-16.27-5.88c-8,6-13.37,13.43-14.92,21.65,1.15.3,3,.85,3.79,1,18.13,4,23.78,8.19,24.81,9.06a6,6,0,0,1,9.41.55,6.86,6.86,0,0,1,4.32-1.52,8,8,0,0,1,2.59.46,5.91,5.91,0,0,1,3.65,3.3,6.1,6.1,0,0,1,2.53-.54,7.62,7.62,0,0,1,3,.66c3.35,1.44,3.87,4.72,3.57,7.2a5.58,5.58,0,0,1,.72,0,7.18,7.18,0,0,1,6.33,10.59c1.08.61,3.83,2,6.24,1.67,1.93-.24,2.66-.9,2.92-1.27s.37-.55.2-.77l-5.12-5.68s-.84-.8-.57-1.11.81.14,1.18.45c2.61,2.17,5.79,5.46,5.79,5.46s.26.45,1.44.66a5.32,5.32,0,0,0,4-1,5.49,5.49,0,0,0,.89-.91l-.06,0a2.72,2.72,0,0,0-.14-3.37l-6-6.71s-.85-.79-.56-1.11.81.15,1.18.46c1.89,1.58,4.57,4.26,7.13,6.77a4.86,4.86,0,0,0,5.73-.2,4.11,4.11,0,0,0,2.12-3.74,4.26,4.26,0,0,0-1.26-2.5l-8.16-8.2s-.86-.74-.56-1.11.81.14,1.18.44c2.6,2.18,9.63,8.63,9.63,8.63a5,5,0,0,0,5.54-.11,3.69,3.69,0,0,0,1.82-2.92A4.34,4.34,0,0,0,139.5,49.78Z"/><path class="cls-3" d="M99.92,60.18c-1.27,0-2.65.74-2.83.63s.07-.58.19-.87,1.79-5.31-2.27-7a4.79,4.79,0,0,0-5.66.85c-.18.18-.25.16-.27-.06a4.48,4.48,0,0,0-3.15-4.17A6.15,6.15,0,0,0,79,52a4.45,4.45,0,1,0-1.32,3.77s0,.07,0,.15a5.84,5.84,0,0,0,3.65,6.73,4.36,4.36,0,0,0,4.3-.66c.35-.25.41-.14.36.19-.15,1,0,3.23,3.13,4.48a4,4,0,0,0,4.65-.86c.39-.36.5-.31.52.25a5.6,5.6,0,1,0,5.6-5.85Z"/><path class="cls-1" d="M140.29,47.64C134,42.15,119.46,29.5,115.52,26.55a17.12,17.12,0,0,0-5.14-3,8.21,8.21,0,0,0-2.52-.39,10.52,10.52,0,0,0-3.2.54c-2.55.8-5.08,2.82-7.53,4.77l-.13.1c-2.29,1.81-4.65,3.69-6.43,4.09a10.68,10.68,0,0,1-2.39.27c-2,0-3.8-.58-4.47-1.44-.11-.15,0-.38.22-.71l0,0,5.54-6c4.33-4.33,8.43-8.43,17.86-8.64h.47a33.43,33.43,0,0,1,12.39,2.93,38.37,38.37,0,0,0,16.89,4.06,44.08,44.08,0,0,0,18.55-4.45q-1.09-.9-2.25-1.77a40.8,40.8,0,0,1-16.28,3.7,36,36,0,0,1-15.81-3.81,35.55,35.55,0,0,0-13.49-3.18h-.53c-7.92.19-12.38,3-15.38,5.46a30.59,30.59,0,0,0-7.67,1.4,20.69,20.69,0,0,1-5.41,1c-.69,0-1.94-.06-2-.07C74.85,21.38,65.1,19,57.34,16.05c-.79.57-1.55,1.14-2.29,1.73,8.1,3.33,18,5.9,21.07,6.1.87.05,1.79.15,2.72.15a22.88,22.88,0,0,0,6.1-1.13c1.17-.33,2.47-.69,3.83-.95L87.68,23l-5.62,6.09a2.81,2.81,0,0,0-.77,3.11,3.91,3.91,0,0,0,1.48,1.64,11.72,11.72,0,0,0,6,1.51,10.66,10.66,0,0,0,2.38-.25c2.36-.52,4.83-2.5,7.45-4.58,2.09-1.66,5.05-3.76,7.32-4.38a8.56,8.56,0,0,1,2-.28,4.33,4.33,0,0,1,.53,0c1.5.19,3,.7,5.54,2.64,4.62,3.47,25.05,21.35,25.25,21.52a4,4,0,0,1,1.23,3,3.26,3.26,0,0,1-1.64,2.6,4.91,4.91,0,0,1-2.68.84,4.38,4.38,0,0,1-2.37-.69c-.07-.06-7.07-6.48-9.65-8.63a2.17,2.17,0,0,0-1.21-.65.67.67,0,0,0-.53.25c-.41.5,0,1.19.58,1.65l8.18,8.22a3.87,3.87,0,0,1,1.13,2.21,3.73,3.73,0,0,1-1.94,3.39,5.27,5.27,0,0,1-2.9,1,4.13,4.13,0,0,1-2.33-.71l-1.18-1.15c-2.14-2.11-4.36-4.29-6-5.64a2.15,2.15,0,0,0-1.21-.64.73.73,0,0,0-.52.22c-.18.21-.31.58.15,1.19a4.42,4.42,0,0,0,.41.46l6,6.7a2.28,2.28,0,0,1,.13,2.86l-.21.27a5.4,5.4,0,0,1-.55.53,4.77,4.77,0,0,1-2.92.93,5.09,5.09,0,0,1-.81-.07,2,2,0,0,1-1.17-.5l-.07-.07c-.33-.34-3.34-3.41-5.83-5.49a2,2,0,0,0-1.16-.62.71.71,0,0,0-.54.24c-.49.54.25,1.35.56,1.64L115.28,69a1.1,1.1,0,0,1-.19.34c-.18.25-.8.87-2.64,1.1a5.17,5.17,0,0,1-.68,0,11.6,11.6,0,0,1-5-1.48,7.46,7.46,0,0,0,.72-3.22,7.6,7.6,0,0,0-7.59-7.6h-.27c.14-1.91-.13-5.53-3.85-7.12a7.88,7.88,0,0,0-3.17-.7,6.46,6.46,0,0,0-2.33.42,6.39,6.39,0,0,0-3.72-3.16,8.3,8.3,0,0,0-2.72-.48,7.22,7.22,0,0,0-4.25,1.36A6.39,6.39,0,0,0,70.09,48c-1.59-1.21-7.87-5.2-24.69-9-.82-.18-2.69-.72-3.83-1.05a25.55,25.55,0,0,0-.43,2.76l3.71.88C62,45.35,67.71,49.32,68.67,50.07a6.56,6.56,0,0,0-.5,2.47A6.46,6.46,0,0,0,74.61,59a6.64,6.64,0,0,0,1.18-.11,7.53,7.53,0,0,0,4.86,5.61,6.42,6.42,0,0,0,2.29.44,6.1,6.1,0,0,0,1.47-.18,6.77,6.77,0,0,0,4,3.74,6.86,6.86,0,0,0,2.53.52,5.72,5.72,0,0,0,2-.35,7.57,7.57,0,0,0,12.45,2.4A14.19,14.19,0,0,0,111.78,73a7.82,7.82,0,0,0,1-.06c2.59-.33,3.8-1.34,4.35-2.13a2.89,2.89,0,0,0,.27-.44,7.24,7.24,0,0,0,2.06.32,6.91,6.91,0,0,0,4.15-1.48,5.72,5.72,0,0,0,2.46-3.57v-.05a6.56,6.56,0,0,0,1.39.14,7.71,7.71,0,0,0,4.27-1.35,6.12,6.12,0,0,0,3.06-5.48,7.49,7.49,0,0,0,1.41.14,7.35,7.35,0,0,0,4-1.23A5.84,5.84,0,0,0,143,53.27a6.12,6.12,0,0,0-.89-3.65,165.34,165.34,0,0,1,26.51-8.3c-.07-.93-.21-1.84-.37-2.75A152.35,152.35,0,0,0,140.29,47.64ZM99.92,71a5.16,5.16,0,0,1-5.19-5c0-.24,0-.87-.57-.87a1,1,0,0,0-.63.33A3.64,3.64,0,0,1,91,66.63a4.54,4.54,0,0,1-1.68-.36c-3-1.2-3-3.24-2.88-4a.77.77,0,0,0-.11-.63l-.18-.16H86a.9.9,0,0,0-.52.21,4.32,4.32,0,0,1-2.51.89,3.91,3.91,0,0,1-1.4-.27A5.45,5.45,0,0,1,78.11,56a.52.52,0,0,0-.17-.52l-.27-.23-.26.25a4,4,0,0,1-6.85-2.92,4,4,0,0,1,8-.51l.14,1.09.6-.92a5.94,5.94,0,0,1,4.71-2.58,5.82,5.82,0,0,1,1.76.28,4.08,4.08,0,0,1,2.86,3.81c0,.53.42.55.49.55a.67.67,0,0,0,.47-.24,4.08,4.08,0,0,1,3-1.26,5.77,5.77,0,0,1,2.24.5c3.81,1.64,2.08,6.48,2.06,6.53-.33.8-.34,1.16,0,1.36l.15.07h.12a2.58,2.58,0,0,0,.73-.19,6.6,6.6,0,0,1,2-.45h0a5.2,5.2,0,1,1,0,10.4Z"/><path class="cls-1" d="M205.65,117.74q-3.59-4.5-10.91-4.5t-10.9,4.5a17.61,17.61,0,0,0,0,21.31q3.6,4.44,10.9,4.44t10.91-4.44a17.61,17.61,0,0,0,0-21.31ZM199.72,135a6.58,6.58,0,0,1-10,0,10.69,10.69,0,0,1-1.75-6.58,10.67,10.67,0,0,1,1.75-6.56,6.6,6.6,0,0,1,10,0,10.74,10.74,0,0,1,1.74,6.56A10.76,10.76,0,0,1,199.72,135Z"/><path class="cls-1" d="M144.45,115.23a18.15,18.15,0,0,0-8.33-1.85q-7.22,0-10.18,3.76a10.93,10.93,0,0,0-2.1,6.14H131a5.28,5.28,0,0,1,1.05-2.61,4.76,4.76,0,0,1,3.79-1.31,7.68,7.68,0,0,1,3.61.67,2.49,2.49,0,0,1,1.23,2.41,2.24,2.24,0,0,1-1.6,2.12,11.74,11.74,0,0,1-3,.65l-2.55.31a18.33,18.33,0,0,0-6.57,1.83q-4.08,2.35-4.08,7.6a7.82,7.82,0,0,0,2.54,6.25,10,10,0,0,0,6.42,2.21c16.24.72,16.06-8.56,16.21-10.49V122.23C148.1,118.81,146.88,116.47,144.45,115.23Zm-3.77,16.22q-.08,3.74-2.13,5.14a7.78,7.78,0,0,1-4.49,1.41,4.13,4.13,0,0,1-2.62-.84,3.33,3.33,0,0,1-1.07-2.76,3.4,3.4,0,0,1,1.76-3.16,11,11,0,0,1,3.42-1l1.7-.32a12.75,12.75,0,0,0,2-.51,7.45,7.45,0,0,0,1.44-.72Z"/><path class="cls-1" d="M107.42,119.75a4.84,4.84,0,0,1,4.1,1.72,6.41,6.41,0,0,1,1.13,2.86h8q-.66-6.06-4.24-8.46a16.38,16.38,0,0,0-9.22-2.39c-4.41,0-7.88,1.35-10.38,4.06S93.05,124,93.05,128.9a15.8,15.8,0,0,0,3.41,10.52q3.41,4.07,10.63,4.07t10.9-4.87a12,12,0,0,0,2.58-6.4h-8a6.74,6.74,0,0,1-1.4,3.64,4.82,4.82,0,0,1-3.91,1.4,5.21,5.21,0,0,1-5.28-3.54,13.58,13.58,0,0,1-.77-5,14.83,14.83,0,0,1,.77-5.24A5.38,5.38,0,0,1,107.42,119.75Z"/><path class="cls-1" d="M90.91,113.48c-16.46,0-15.49,14.57-15.49,14.57v14.8h7.47V129a11.41,11.41,0,0,1,.86-5.05q1.53-2.91,6-2.91l.89,0c.36,0,.77,0,1.25.1v-7.6l-.64,0Z"/><path class="cls-1" d="M63.47,135.11a5.11,5.11,0,0,1-1,1.13,6.39,6.39,0,0,1-4.18,1.14,7.1,7.1,0,0,1-4-1c-1.86-1.14-2.91-3.08-3-5.93H71.94a37,37,0,0,0-.25-5.63A13.88,13.88,0,0,0,69.43,119a11.63,11.63,0,0,0-4.9-4.2,16.24,16.24,0,0,0-6.67-1.33,13.74,13.74,0,0,0-10.15,3.93q-3.9,3.94-3.91,11.31,0,7.88,4.33,11.36a15.52,15.52,0,0,0,10,3.49q6.85,0,10.67-4.14a10,10,0,0,0,2.59-4.31Zm-10-13.9a5.9,5.9,0,0,1,4.43-1.62,6.5,6.5,0,0,1,4.4,1.53,6.21,6.21,0,0,1,2,4.48H51.46A7.68,7.68,0,0,1,53.43,121.21Z"/><path class="cls-1" d="M40.8,142.84H34V125.67c0-1.57-.52-5.3-5-5.3a5,5,0,0,0-5.17,5.3v17.17H17V125.67c0-1.57-.46-5.3-5-5.3a5,5,0,0,0-5.17,5.3v17.17H0v-17c0-7.09,4.71-12.45,12-12.45a10.51,10.51,0,0,1,8.48,4,10.9,10.9,0,0,1,8.48-4c7.45,0,11.84,5.14,11.84,12.45Z"/><path class="cls-1" d="M178,104.5s-7.53-.8-7.53,5.24v8a9,9,0,0,0-3.25-3.13,9.21,9.21,0,0,0-4.59-1.13,10.88,10.88,0,0,0-8.94,4.16c-2.23,2.78-3.34,6.78-3.34,11.62a15.41,15.41,0,0,0,3.4,10.32c2.26,2.68,6.7,3.86,10.65,3.86,13.75,0,13.59-11.8,13.59-11.8Zm-9,30.51a5.47,5.47,0,0,1-4.79,2.35,5.24,5.24,0,0,1-4.7-2.36,12,12,0,0,1-1.55-6.48,11.43,11.43,0,0,1,1.52-6.1,5.22,5.22,0,0,1,4.78-2.46,5.68,5.68,0,0,1,3.75,1.35c1.75,1.49,2.63,4.17,2.63,7.64A10.36,10.36,0,0,1,169.07,135Z"/><path class="cls-3" d="M54.35,188a3.49,3.49,0,0,1-1.1,2.6,3.59,3.59,0,0,1-2.64,1.09H46.87v-26c0-5.05,1.71-8.22,4.51-10.36,1.86-1.41,4.62-2.76,9.79-2.76,3.49,0,7.58,1.35,9.79,4.05,2.48,3,3.51,6.4,3.51,10.81,0,4.56-1.1,8.24-3.29,11.07a10.37,10.37,0,0,1-8.47,4.12,11.33,11.33,0,0,1-4.84-1,8.27,8.27,0,0,1-3.52-3.37Zm12.54-20.24a11,11,0,0,0-1.65-6.51A5.49,5.49,0,0,0,60.51,159a5.41,5.41,0,0,0-4.63,2.28c-1,1.37-1.53,3.55-1.53,6.51q0,4.13,1.65,6.18a5.49,5.49,0,0,0,4.73,2.28,5.28,5.28,0,0,0,4.51-2.28,10.32,10.32,0,0,0,1.65-6.18"/><path class="cls-3" d="M124,180.23v-1.84a8.23,8.23,0,0,1-5.24,3.79,10.78,10.78,0,0,1-6.53-.54,12.19,12.19,0,0,1-5.57-4.83,16.66,16.66,0,0,1-2.32-9.27q0-6.72,3.08-10.9c2.05-2.78,5.35-4,9.88-4.17s7.07.89,9.62,2.82c2.78,2.11,4.42,5.35,4.42,10.41V181c0,4.87-3.38,13.89-14,13.12-6.6-.48-10.26-3.19-12.31-9.33h7.89a6,6,0,0,0,6.2,2.77,5.92,5.92,0,0,0,3.25-2.12,8.79,8.79,0,0,0,1.67-5.2m-12.31-12.47q0,7.49,4.32,8.29c2.87.54,5-.13,6.37-2a7.93,7.93,0,0,0,1.4-3.73,15.8,15.8,0,0,0,.06-5,10.1,10.1,0,0,0-1.78-4.45,4.75,4.75,0,0,0-4.11-1.95c-2.45,0-4.1.9-5,2.7a14.25,14.25,0,0,0-1.29,6.19"/><path class="cls-3" d="M98,154.53a18.22,18.22,0,0,0-8.34-1.85q-7.23,0-10.2,3.76a11,11,0,0,0-2.1,6.15h7.2A5.36,5.36,0,0,1,85.6,160a4.73,4.73,0,0,1,3.78-1.3,7.69,7.69,0,0,1,3.62.67,2.5,2.5,0,0,1,1.24,2.41,2.25,2.25,0,0,1-1.61,2.12,12.1,12.1,0,0,1-3,.66l-2.55.31a18.19,18.19,0,0,0-6.59,1.83q-4.08,2.36-4.08,7.61A7.83,7.83,0,0,0,79,180.54a10,10,0,0,0,6.43,2.21c16.27.73,16.08-8.57,16.23-10.5V161.54c0-3.43-1.21-5.77-3.65-7M94.2,170.78c0,2.49-.76,4.2-2.13,5.15a7.78,7.78,0,0,1-4.49,1.41,4.1,4.1,0,0,1-2.62-.85,3.31,3.31,0,0,1-1.08-2.76,3.4,3.4,0,0,1,1.76-3.16,11,11,0,0,1,3.43-1l1.7-.31a13.8,13.8,0,0,0,2-.52A7.45,7.45,0,0,0,94.2,168Z"/><path class="cls-3" d="M159.68,156.89q-3.6-4.51-10.93-4.51t-10.92,4.51a17.67,17.67,0,0,0,0,21.35c2.41,2.95,6,4.44,10.92,4.44s8.53-1.49,10.93-4.44a17.63,17.63,0,0,0,0-21.35m-5.94,17.23a6.57,6.57,0,0,1-10,0c-1.18-1.54-1.76-3.73-1.76-6.58s.58-5,1.76-6.57a6.61,6.61,0,0,1,10,0,13.29,13.29,0,0,1,0,13.15"/></svg>